<?xml version="1.0" standalone="no"?><!DOCTYPE svg PUBLIC "-//W3C//DTD SVG 1.1//EN" "http://www.w3.org/Graphics/SVG/1.1/DTD/svg11.dtd"><svg t="1774865209762" class="icon" viewBox="0 0 1024 1024" version="1.1" xmlns="http://www.w3.org/2000/svg" p-id="10173" xmlns:xlink="http://www.w3.org/1999/xlink" width="200" height="200"><path d="M960 122.88v344.576c0 31.232-7.68 62.976-22.528 93.696-15.36 31.232-29.696 61.44-54.272 90.624-24.576 29.184-52.224 56.832-83.968 82.944-31.232 26.112-63.488 49.152-95.744 69.632-32.256 20.48-64 37.376-94.208 51.2s-57.344 22.528-80.384 27.648l-10.752 2.048-9.728-2.048c-23.552-5.12-50.688-14.336-81.92-27.648s-63.488-30.72-96.768-51.2c-33.792-20.48-66.56-43.52-98.816-69.632-32.256-26.112-60.928-53.76-86.528-82.944-25.6-29.184-40.448-59.392-56.32-90.624-15.872-31.232-23.552-62.464-23.552-93.696V128l37.376-10.752L513.024 0l419.84 117.248 27.136 5.632z" fill="#A9C6FF" p-id="10174"></path><path d="M960 261.632v344.576c0 31.232-7.68 62.976-22.528 93.696-15.36 31.232-29.696 61.44-54.272 90.624-24.576 29.184-52.224 56.832-83.968 82.944-31.232 26.112-63.488 49.152-95.744 69.632-32.256 20.48-64 37.376-94.208 51.2s-62.464 22.528-85.504 27.648l-10.752 2.048-9.728-2.048c-23.552-5.12-45.568-14.336-76.8-27.648s-63.488-30.72-96.768-51.2c-33.792-20.48-66.56-43.52-98.816-69.632-32.256-26.112-60.928-53.76-86.528-82.944-25.6-29.184-40.448-59.392-56.32-90.624-15.872-31.232-23.552-62.464-23.552-93.696V266.752l37.376-10.752 411.648-117.248 419.84 117.248 26.624 5.632z" fill="#1560F7" p-id="10175"></path><path d="M460.8 725.504c-9.216 0-18.432-3.584-25.088-10.24-13.824-13.824-14.336-36.864 0-50.688l92.672-93.184H409.6c-14.336 0-27.648-8.704-33.28-22.528s-2.048-29.184 8.192-39.424l163.84-159.744c14.336-13.824 36.864-13.312 50.688 0.512 13.824 14.336 13.312 36.864-0.512 50.688L497.664 499.2H614.4c14.336 0 27.648 8.704 33.28 22.016 5.632 13.312 2.56 28.672-7.68 38.912l-153.6 154.624c-7.168 7.168-16.384 10.752-25.6 10.752z" fill="#FFFFFF" p-id="10176"></path></svg>